<svg xmlns="http://www.w3.org/2000/svg" xmlns:xlink="http://www.w3.org/1999/xlink" width="500" zoomAndPan="magnify" viewBox="0 0 375 374.999991" height="500" preserveAspectRatio="xMidYMid meet" version="1.2"><defs><clipPath id="b089a1a5bc"><path d="M 182.863281 253.347656 L 209.863281 253.347656 L 209.863281 296.847656 L 182.863281 296.847656 Z M 182.863281 253.347656 "/></clipPath></defs><g id="42220721ae"><g style="fill:#000000;fill-opacity:1;"><g transform="translate(27.958611, 193.112622)"><path style="stroke:none" d="M 80.265625 0 L 4.25 0 L 4.25 -18.0625 L 56.1875 -84.9375 L 55.6875 -86.4375 L 6.3125 -86.4375 L 6.3125 -103.578125 L 79.765625 -103.578125 L 79.765625 -85.515625 L 27.84375 -18.625 L 28.34375 -17.140625 L 80.265625 -17.140625 Z M 80.265625 0 "/></g></g><g style="fill:#000000;fill-opacity:1;"><g transform="translate(90.732253, 193.112622)"><path style="stroke:none" d="M 33.9375 -45.484375 L 33.9375 -17.140625 L 83.390625 -17.140625 L 83.390625 0 L 13.453125 0 L 13.453125 -103.578125 L 82.25 -103.578125 L 82.25 -86.4375 L 33.9375 -86.4375 L 33.9375 -62.203125 L 76.15625 -62.203125 L 76.15625 -45.484375 Z M 33.9375 -45.484375 "/></g></g><g style="fill:#000000;fill-opacity:1;"><g transform="translate(19.080263, 298.538234)"><path style="stroke:none" d="M 50.71875 -103.578125 C 67.539062 -103.578125 80.378906 -99.226562 89.234375 -90.53125 C 98.085938 -81.84375 102.515625 -68.925781 102.515625 -51.78125 C 102.515625 -34.6875 98.085938 -21.78125 89.234375 -13.0625 C 80.378906 -4.351562 67.539062 0 50.71875 0 L 13.453125 0 L 13.453125 -103.578125 Z M 49.515625 -17.21875 C 60.191406 -17.21875 68.175781 -19.941406 73.46875 -25.390625 C 78.757812 -30.847656 81.40625 -39.644531 81.40625 -51.78125 C 81.40625 -63.925781 78.757812 -72.722656 73.46875 -78.171875 C 68.175781 -83.628906 60.191406 -86.359375 49.515625 -86.359375 L 33.9375 -86.359375 L 33.9375 -17.21875 Z M 49.515625 -17.21875 "/></g></g><g style="fill:#000000;fill-opacity:1;"><g transform="translate(91.482253, 298.538234)"><path style="stroke:none" d="M 33.9375 -45.484375 L 33.9375 -17.140625 L 83.390625 -17.140625 L 83.390625 0 L 13.453125 0 L 13.453125 -103.578125 L 82.25 -103.578125 L 82.25 -86.4375 L 33.9375 -86.4375 L 33.9375 -62.203125 L 76.15625 -62.203125 L 76.15625 -45.484375 Z M 33.9375 -45.484375 "/></g></g><path style="fill:none;stroke-width:50;stroke-linecap:butt;stroke-linejoin:miter;stroke:#000000;stroke-opacity:1;stroke-miterlimit:4;" d="M 0.000803699 25.001097 L 279.49041 25.001097 " transform="matrix(0,0.7487,-0.7487,0,215.069887,88.772836)"/><path style="fill:none;stroke-width:50;stroke-linecap:butt;stroke-linejoin:miter;stroke:#000000;stroke-opacity:1;stroke-miterlimit:4;" d="M 0.000803699 25.000428 L 279.49041 25.000428 " transform="matrix(0,0.7487,-0.7487,0,327.268605,88.772836)"/><path style="fill:none;stroke-width:4;stroke-linecap:butt;stroke-linejoin:miter;stroke:#000000;stroke-opacity:1;stroke-miterlimit:4;" d="M -0.00233322 1.998388 L 159.997677 1.998388 " transform="matrix(0.75,0,0,0.75,198.482219,88.770741)"/><path style="fill:none;stroke-width:4;stroke-linecap:butt;stroke-linejoin:miter;stroke:#000000;stroke-opacity:1;stroke-miterlimit:4;" d="M -0.000151432 1.998047 L 159.999859 1.998047 " transform="matrix(0.75,0,0,0.75,196.843864,295.388184)"/><path style="fill:none;stroke-width:4;stroke-linecap:butt;stroke-linejoin:miter;stroke:#000000;stroke-opacity:1;stroke-miterlimit:4;" d="M -0.00000515323 1.998388 L 114.520533 2.000649 " transform="matrix(0.646384,0.380378,-0.380378,0.646384,254.006239,44.985619)"/><path style="fill:none;stroke-width:4;stroke-linecap:butt;stroke-linejoin:miter;stroke:#000000;stroke-opacity:1;stroke-miterlimit:4;" d="M -0.000439887 1.999018 L 116.422216 1.998416 " transform="matrix(-0.647729,0.372864,-0.372864,-0.647729,253.983357,47.580143)"/><path style="fill:none;stroke-width:50;stroke-linecap:butt;stroke-linejoin:miter;stroke:#000000;stroke-opacity:1;stroke-miterlimit:4;" d="M -0.000430551 24.999164 L 289.871882 25.000193 " transform="matrix(0.362864,0.656376,-0.656376,0.362864,213.553541,89.82742)"/><path style="fill:none;stroke-width:4;stroke-linecap:butt;stroke-linejoin:miter;stroke:#000000;stroke-opacity:1;stroke-miterlimit:4;" d="M 0.000993787 2.000092 L 11.761411 2.000092 " transform="matrix(0.75,0,0,0.75,248.835192,43.277275)"/><g clip-rule="nonzero" clip-path="url(#b089a1a5bc)"><path style=" stroke:none;fill-rule:nonzero;fill:#ffffff;fill-opacity:1;" d="M 209.671875 254.109375 C 209.671875 254.085938 209.671875 254.0625 209.671875 254.039062 C 209.671875 253.683594 209.371094 253.378906 209.011719 253.378906 L 183.589844 253.378906 C 183.230469 253.378906 182.929688 253.683594 182.929688 254.039062 L 182.929688 290.976562 C 182.929688 292.671875 182.859375 294.386719 182.929688 296.082031 C 182.929688 296.105469 182.929688 296.128906 182.929688 296.152344 C 182.929688 296.507812 183.230469 296.8125 183.589844 296.8125 L 209.011719 296.8125 C 209.214844 296.8125 209.371094 296.738281 209.476562 296.625 C 209.59375 296.515625 209.671875 296.359375 209.671875 296.152344 L 209.671875 259.21875 C 209.671875 257.519531 209.742188 255.804688 209.671875 254.109375 Z M 200.410156 295.492188 L 184.25 295.492188 L 184.25 255.757812 C 184.25 255.414062 184.273438 255.054688 184.273438 254.699219 L 208.355469 254.699219 L 208.355469 290.976562 C 208.355469 292.476562 208.300781 293.988281 208.335938 295.492188 Z M 200.410156 295.492188 "/></g><path style=" stroke:none;fill-rule:nonzero;fill:#ffffff;fill-opacity:1;" d="M 203.972656 272.914062 C 202.820312 272.910156 201.851562 273.898438 201.855469 275.046875 C 201.859375 276.199219 202.8125 277.179688 203.972656 277.179688 C 205.105469 277.179688 205.957031 276.292969 206.078125 275.21875 C 206.089844 275.164062 206.09375 275.109375 206.089844 275.046875 C 206.09375 274.984375 206.089844 274.929688 206.078125 274.878906 C 205.957031 273.800781 205.105469 272.917969 203.972656 272.914062 Z M 203.171875 275.046875 C 203.171875 273.996094 204.730469 274.003906 204.773438 275.046875 C 204.730469 276.089844 203.171875 276.097656 203.171875 275.046875 Z M 203.171875 275.046875 "/></g></svg>